<?xml version="1.0" standalone="no"?>
<!DOCTYPE svg PUBLIC "-//W3C//DTD SVG 20010904//EN"
 "http://www.w3.org/TR/2001/REC-SVG-20010904/DTD/svg10.dtd">
<svg version="1.0" xmlns="http://www.w3.org/2000/svg"
 width="3840.000000pt" height="2160.000000pt" viewBox="0 0 3840.000000 2160.000000"
 preserveAspectRatio="xMidYMid meet">

<g transform="translate(0.000000,2160.000000) scale(0.100000,-0.100000)"
fill="#000000" stroke="none">
<path d="M0 10800 l0 -10800 19200 0 19200 0 0 10800 0 10800 -2625 0 c-2618
0 -2625 0 -2625 -20 0 -11 -7 -20 -15 -20 -8 0 -15 -5 -15 -10 0 -7 -6 -7 -20
0 -11 6 -20 20 -20 30 0 20 -105 20 -16540 20 l-16540 0 0 -10800z m23060
10650 c0 -5 -4 -10 -10 -10 -5 0 -10 5 -10 10 0 6 5 10 10 10 6 0 10 -4 10
-10z m-6398 -52 c-9 -9 -15 -9 -24 0 -9 9 -7 12 12 12 19 0 21 -3 12 -12z
m1871 -68 c4 -16 0 -20 -19 -20 -17 0 -24 6 -24 20 0 13 7 20 19 20 10 0 21
-9 24 -20z m-5996 -45 c0 -8 -4 -12 -9 -9 -4 3 -8 9 -8 15 0 5 4 9 8 9 5 0 9
-7 9 -15z m11863 -50 c0 -8 -9 -15 -20 -15 -20 0 -26 11 -13 23 12 13 33 7 33
-8z m2713 -9 c6 -15 -1 -26 -15 -26 -4 0 -8 9 -8 20 0 23 15 27 23 6z m-6368
-50 c0 -22 -14 -29 -33 -18 -17 12 -4 44 17 40 9 -2 16 -12 16 -22z m3269 -11
c7 -20 -3 -45 -19 -45 -16 0 -26 25 -19 45 4 8 12 15 19 15 7 0 15 -7 19 -15z
m4316 -66 c0 -24 -23 -21 -28 4 -2 10 3 17 12 17 10 0 16 -9 16 -21z m-4706
-165 c9 -3 16 -10 16 -16 0 -5 -4 -7 -9 -4 -5 4 -12 0 -15 -6 -5 -11 -7 -11
-12 0 -3 6 -10 10 -15 6 -5 -3 -9 -1 -9 5 0 5 6 12 13 14 6 3 13 6 14 6 1 1 8
-2 17 -5z m344 -15 c2 -9 -5 -19 -14 -23 -21 -8 -50 17 -39 34 10 16 49 8 53
-11z m-10663 -22 c13 -10 16 -21 11 -40 -5 -22 -12 -27 -36 -27 -23 0 -31 5
-36 25 -6 26 9 55 30 55 7 0 20 -6 31 -13z m11313 -23 c29 -8 28 -21 -3 -26
-25 -5 -51 13 -38 25 8 8 12 8 41 1z m2920 -87 c2 -12 -3 -17 -17 -17 -15 0
-21 6 -21 21 0 25 33 22 38 -4z m-3768 -6 c0 -6 -4 -13 -10 -16 -5 -3 -10 1
-10 9 0 9 5 16 10 16 6 0 10 -4 10 -9z m-9829 -47 c10 -13 10 -17 -2 -25 -23
-14 -29 -11 -29 16 0 29 12 32 31 9z m8139 6 c0 -5 -7 -10 -16 -10 -8 0 -12 5
-9 10 3 6 10 10 16 10 5 0 9 -4 9 -10z m-1260 -39 c0 -18 -6 -31 -16 -35 -9
-4 -17 -5 -18 -4 -1 2 -8 11 -15 21 -16 21 0 47 30 47 14 0 19 -7 19 -29z m35
-29 c-3 -3 -11 0 -18 7 -9 10 -8 11 6 5 10 -3 15 -9 12 -12z m-6476 -22 c62
-52 -17 -145 -81 -96 -26 19 -23 74 4 97 27 24 47 24 77 -1z m961 -166 c0 -14
-22 -44 -34 -44 -13 0 -34 32 -30 45 8 21 64 20 64 -1z m11976 2 c24 -25 18
-63 -12 -70 -45 -12 -72 34 -41 69 16 18 35 19 53 1z m-12616 -60 c0 -7 10
-21 23 -29 22 -16 22 -16 -14 -16 -43 -1 -75 20 -66 43 8 20 57 22 57 2z
m1275 -2 c30 -31 0 -86 -39 -71 -19 8 -21 52 -3 72 16 19 22 18 42 -1z m6924
-25 c-14 -8 -39 -1 -39 11 0 14 24 18 38 7 10 -8 10 -12 1 -18z m701 10 c0
-11 -4 -17 -10 -14 -5 3 -10 13 -10 21 0 8 5 14 10 14 6 0 10 -9 10 -21z m978
-11 c-3 -25 -43 -37 -60 -20 -19 19 0 42 32 42 27 0 31 -3 28 -22z m520 -5 c4
-25 -27 -46 -52 -37 -16 6 -22 45 -9 58 16 15 58 1 61 -21z m-9260 -70 c3 -19
-1 -23 -22 -23 -29 0 -39 11 -30 35 10 24 48 15 52 -12z m4532 23 c0 -2 -3
-11 -6 -20 -9 -23 -24 -20 -24 4 0 11 7 20 15 20 8 0 15 -2 15 -4z m-4430 -46
c0 -26 -4 -30 -26 -30 -14 0 -32 7 -41 15 -21 21 0 45 38 45 26 0 29 -4 29
-30z m3424 14 c9 -23 8 -24 -14 -24 -19 0 -27 20 -13 33 11 11 20 8 27 -9z
m2556 -48 c0 -2 -3 -11 -6 -20 -5 -13 -8 -13 -20 -1 -19 19 -18 25 6 25 11 0
20 -2 20 -4z m-21010 -26 c0 -5 -6 -10 -14 -10 -8 0 -18 5 -21 10 -3 6 3 10
14 10 12 0 21 -4 21 -10z m12100 -11 c0 -25 -33 -22 -38 4 -2 12 3 17 17 17
15 0 21 -6 21 -21z m8514 -37 c-21 -5 -26 2 -18 22 6 15 7 15 20 -1 11 -15 10
-19 -2 -21z m-15004 -37 c0 -17 -30 -34 -47 -28 -16 6 -17 35 -1 51 14 14 48
-2 48 -23z m8662 10 c13 -30 -1 -51 -27 -42 -16 7 -36 47 -28 60 10 17 44 6
55 -18z m-169 -40 c8 -18 -11 -31 -25 -17 -11 11 -3 32 12 32 4 0 10 -7 13
-15z m3417 -24 c0 -14 -5 -18 -20 -14 -11 3 -20 12 -20 19 0 8 9 14 20 14 13
0 20 -7 20 -19z m930 -15 c-5 -5 -17 -5 -27 -2 -17 7 -17 8 1 22 16 11 21 11
27 2 5 -7 4 -17 -1 -22z m-3129 3 c17 -14 20 -22 12 -25 -7 -3 -13 -12 -13
-20 0 -18 -27 -18 -46 0 -17 18 -18 53 -1 59 20 9 24 8 48 -14z m12717 -6 c-5
-26 -38 -29 -38 -4 0 15 6 21 21 21 14 0 19 -5 17 -17z m-13618 -11 c0 -12
-30 -52 -39 -52 -11 0 -19 31 -14 48 5 13 53 17 53 4z m13820 -44 c0 -5 -7 -8
-15 -8 -15 0 -20 21 -8 33 7 7 23 -11 23 -25z m-13520 -18 c0 -5 -9 -10 -20
-10 -11 0 -20 5 -20 10 0 6 9 10 20 10 11 0 20 -4 20 -10z m270 -10 c0 -13 -7
-20 -20 -20 -13 0 -20 7 -20 20 0 13 7 20 20 20 13 0 20 -7 20 -20z m-292
-142 c3 -22 -2 -29 -22 -34 -27 -6 -56 9 -56 30 0 21 24 37 50 34 19 -2 26
-10 28 -30z m8456 16 c23 -9 20 -34 -4 -34 -13 0 -20 7 -20 20 0 22 1 23 24
14z m3949 -51 c-7 -2 -19 -2 -25 0 -7 3 -2 5 12 5 14 0 19 -2 13 -5z m-20873
-103 c0 -5 -4 -10 -10 -10 -5 0 -10 5 -10 10 0 6 5 10 10 10 6 0 10 -4 10 -10z
m8138 -77 c-3 -30 -25 -42 -34 -19 -9 22 2 46 21 46 12 0 15 -8 13 -27z m-128
-32 c0 -10 -7 -22 -16 -25 -23 -9 -24 -8 -24 19 0 18 5 25 20 25 13 0 20 -7
20 -19z m-5000 -46 c0 -8 -4 -15 -10 -15 -5 0 -10 7 -10 15 0 8 5 15 10 15 6
0 10 -7 10 -15z m1426 -142 c-11 -11 -19 6 -11 24 8 17 8 17 12 0 3 -10 2 -21
-1 -24z m3424 -8 c11 -29 22 -31 44 -10 17 17 46 20 46 5 0 -5 -4 -10 -10 -10
-5 0 -10 -13 -10 -28 0 -20 7 -32 23 -39 l22 -10 -22 -7 c-13 -4 -23 -13 -23
-19 0 -7 -9 -19 -20 -27 -11 -8 -20 -20 -20 -26 0 -18 -30 -26 -36 -10 -8 20
-34 28 -50 15 -20 -16 -36 -2 -24 22 9 16 6 21 -24 36 -37 17 -39 33 -5 33 10
0 29 6 42 13 12 6 23 13 25 14 4 2 10 32 11 56 1 25 20 21 31 -8z m17108 -48
c3 -24 0 -27 -27 -27 -27 0 -31 3 -30 28 0 24 1 25 9 7 8 -19 9 -19 9 3 1 34
35 25 39 -11z m-6038 3 c0 -5 -4 -10 -10 -10 -5 0 -10 5 -10 10 0 6 5 10 10
10 6 0 10 -4 10 -10z m-17250 -80 c0 -22 -25 -27 -50 -10 -13 9 -13 11 0 20
25 17 50 12 50 -10z m-2660 -20 c0 -5 -5 -10 -11 -10 -5 0 -7 5 -4 10 3 6 8
10 11 10 2 0 4 -4 4 -10z m18680 -30 c0 -5 -4 -10 -10 -10 -5 0 -10 5 -10 10
0 6 5 10 10 10 6 0 10 -4 10 -10z m-22970 -40 c0 -5 -4 -10 -10 -10 -5 0 -10
5 -10 10 0 6 5 10 10 10 6 0 10 -4 10 -10z m17857 -5 c23 -23 9 -65 -21 -65
-32 0 -52 43 -31 67 14 17 34 16 52 -2z m-4097 -45 c0 -13 -7 -20 -20 -20 -13
0 -20 7 -20 20 0 13 7 20 20 20 13 0 20 -7 20 -20z m-166 -36 c9 -22 -1 -33
-24 -27 -23 6 -25 14 -8 31 16 16 25 15 32 -4z m4666 1 c0 -8 -6 -15 -14 -15
-17 0 -28 14 -19 24 12 12 33 6 33 -9z m-172 -35 c-2 -6 -8 -6 -18 0 -13 9
-13 11 0 20 15 10 25 0 18 -20z m-7918 -16 c0 -8 -4 -14 -10 -14 -5 0 -10 9
-10 21 0 11 5 17 10 14 6 -3 10 -13 10 -21z m3958 -20 c29 -20 28 -50 -2 -69
-25 -17 -56 -11 -56 10 0 7 -6 16 -12 19 -10 5 -10 7 0 12 6 3 12 12 12 19 0
12 13 22 30 24 3 1 16 -6 28 -15z m7622 -20 c0 -8 -2 -14 -4 -14 -2 0 -11 -3
-20 -6 -11 -4 -16 0 -16 13 0 11 3 22 6 26 10 9 34 -4 34 -19z m5400 11 c0 -8
-4 -15 -9 -15 -13 0 -22 16 -14 24 11 11 23 6 23 -9z m-15320 -25 c0 -13 -11
-13 -30 0 -12 8 -11 10 8 10 12 0 22 -4 22 -10z m10620 -15 c0 -8 -7 -15 -15
-15 -26 0 -18 20 13 29 1 1 2 -6 2 -14z m-8190 -85 c0 -35 -25 -58 -48 -43
-23 14 -28 54 -7 69 26 19 55 6 55 -26z m-10010 -40 c0 -5 -9 -10 -20 -10 -11
0 -20 5 -20 10 0 6 9 10 20 10 11 0 20 -4 20 -10z m27960 -60 c0 -25 -4 -30
-25 -30 -14 0 -28 7 -31 15 -8 20 13 45 37 45 14 0 19 -7 19 -30z m-15956 4
c23 -9 20 -34 -4 -34 -13 0 -20 7 -20 20 0 22 1 23 24 14z m-1825 -46 c-8 -14
-14 -17 -21 -10 -15 15 -2 43 16 36 12 -5 13 -10 5 -26z m-9857 -63 c6 -28 1
-35 -23 -35 -17 0 -29 25 -22 48 8 22 40 13 45 -13z m12588 -109 c0 -9 -7 -12
-20 -9 -11 3 -17 9 -14 14 8 14 34 10 34 -5z m710 -6 c0 -14 -7 -20 -24 -20
-19 0 -23 4 -19 20 3 11 14 20 24 20 12 0 19 -7 19 -20z m1124 -16 c9 -4 16
-18 16 -33 0 -23 -5 -27 -30 -29 -27 -2 -30 1 -30 27 0 16 6 32 13 34 6 3 13
6 14 6 1 1 8 -2 17 -5z m-12524 -25 c0 -11 -4 -17 -10 -14 -5 3 -10 13 -10 21
0 8 5 14 10 14 6 0 10 -9 10 -21z m15400 -35 c0 -8 -5 -12 -10 -9 -6 4 -8 11
-5 16 9 14 15 11 15 -7z m8100 -104 c0 -26 -3 -30 -29 -30 -16 0 -31 6 -35 15
-10 26 5 45 35 45 26 0 29 -4 29 -30z m-1990 -4 c0 -8 -4 -18 -10 -21 -5 -3
-10 3 -10 14 0 12 5 21 10 21 6 0 10 -6 10 -14z m-12474 -140 c18 -19 18 -35
-3 -58 -20 -23 -34 -23 -61 1 -26 22 -27 29 -5 53 19 22 49 23 69 4z m-936 0
c0 -3 -4 -8 -10 -11 -5 -3 -10 -1 -10 4 0 6 5 11 10 11 6 0 10 -2 10 -4z
m6489 -95 c17 -11 7 -41 -13 -41 -19 0 -29 17 -22 35 6 17 15 18 35 6z m-5159
-91 c0 -5 -9 -10 -20 -10 -11 0 -20 5 -20 10 0 6 9 10 20 10 11 0 20 -4 20
-10z m6695 -40 c4 -6 -7 -10 -24 -10 -17 0 -31 5 -31 10 0 6 11 10 24 10 14 0
28 -4 31 -10z m-8900 -40 c3 -5 1 -10 -4 -10 -6 0 -11 5 -11 10 0 6 2 10 4 10
3 0 8 -4 11 -10z m5275 -1 c0 -5 5 -7 10 -4 6 3 10 -5 10 -18 0 -26 -20 -40
-45 -31 -18 7 -20 50 -2 57 20 9 27 8 27 -4z m5277 -65 c1 -5 -1 -15 -5 -22
-10 -15 -42 -5 -42 13 0 22 40 30 47 9z m-11477 -64 c0 -5 -7 -10 -15 -10 -8
0 -15 5 -15 10 0 6 7 10 15 10 8 0 15 -4 15 -10z m-2720 -97 c0 -5 -4 -14 -9
-21 -7 -11 -9 -11 -14 1 -3 8 -3 18 0 21 9 8 23 7 23 -1z m1410 -47 c0 -3 -4
-8 -10 -11 -5 -3 -10 -1 -10 4 0 6 5 11 10 11 6 0 10 -2 10 -4z m14850 -120
c0 -2 3 -11 6 -19 6 -16 -32 -31 -41 -17 -8 13 6 40 21 40 8 0 14 -2 14 -4z
m-3190 -76 c0 -13 -7 -20 -20 -20 -13 0 -20 7 -20 20 0 13 7 20 20 20 13 0 20
-7 20 -20z m891 -153 c-13 -13 -26 -3 -16 12 3 6 11 8 17 5 6 -4 6 -10 -1 -17z
m6169 -47 c0 -5 -4 -10 -10 -10 -5 0 -10 5 -10 10 0 6 5 10 10 10 6 0 10 -4
10 -10z m-5170 -110 c0 -11 -4 -20 -10 -20 -5 0 -10 9 -10 20 0 11 5 20 10 20
6 0 10 -9 10 -20z m-3070 -56 c0 -11 -5 -14 -16 -10 -9 3 -18 6 -20 6 -3 0 -2
5 1 10 10 16 35 12 35 -6z m9058 -6 c28 -28 3 -66 -33 -52 -25 10 -12 64 15
64 3 0 11 -5 18 -12z m-464 -24 c9 -3 16 -12 16 -19 0 -16 -33 -30 -38 -16 -2
6 -8 9 -13 5 -5 -3 -9 1 -9 10 0 8 6 17 13 19 6 3 13 6 14 6 1 1 8 -2 17 -5z
m-27124 -39 c-7 -8 -16 -12 -21 -9 -13 8 -1 24 18 24 13 0 13 -3 3 -15z
m20998 -97 c3 -25 0 -28 -27 -28 -28 0 -31 3 -31 31 0 27 3 30 28 27 21 -2 28
-9 30 -30z m-24484 -4 c9 -23 8 -24 -14 -24 -11 0 -20 2 -20 4 0 12 13 36 20
36 4 0 11 -7 14 -16z m33806 -14 c0 -5 -4 -10 -10 -10 -5 0 -10 5 -10 10 0 6
5 10 10 10 6 0 10 -4 10 -10z m-15030 -69 c0 -21 -22 -33 -45 -25 -18 7 -20
35 -3 52 15 15 48 -3 48 -27z m-1015 -101 c-3 -5 -10 -10 -16 -10 -5 0 -9 5
-9 10 0 6 7 10 16 10 8 0 12 -4 9 -10z m-2062 -30 c-4 -16 -33 -30 -33 -16 0
2 -3 11 -6 20 -5 12 0 16 19 16 20 0 24 -4 20 -20z m4507 -73 c0 -7 -9 -13
-20 -14 -11 -1 -20 4 -20 13 0 8 9 14 20 14 11 0 20 -6 20 -13z m2510 -92 c0
-8 -7 -15 -15 -15 -16 0 -20 12 -8 23 11 12 23 8 23 -8z m8030 -41 c0 -18 -36
-18 -43 0 -6 16 10 26 31 18 6 -2 12 -10 12 -18z m-14726 10 c10 -4 16 -18 16
-40 0 -30 -3 -34 -26 -34 -14 0 -32 7 -41 16 -13 13 -14 19 -3 40 14 24 26 29
54 18z m-75 -206 c10 -18 27 -35 37 -37 16 -3 79 23 94 39 3 3 19 14 35 24 17
10 24 13 18 5 -7 -7 -13 -30 -13 -52 0 -23 -4 -36 -10 -32 -5 3 -10 0 -10 -9
0 -8 -5 -16 -11 -18 -6 -2 -10 -12 -8 -22 4 -17 6 -16 28 3 28 25 35 26 27 6
-4 -10 3 -16 22 -20 15 -3 50 -13 78 -22 29 -8 57 -12 64 -8 13 8 60 -13 60
-27 0 -4 -8 -8 -17 -8 -34 0 -82 -24 -94 -48 -12 -21 -11 -26 6 -38 10 -8 33
-14 49 -14 24 0 35 -7 47 -29 15 -26 15 -29 -2 -39 -10 -7 -36 -12 -56 -12
-41 0 -133 -29 -133 -42 0 -4 -7 -8 -16 -8 -8 0 -12 -4 -9 -10 4 -6 -13 -10
-45 -10 l-51 0 5 -51 6 -51 -33 6 c-17 3 -62 10 -98 15 -84 11 -92 16 -85 52
4 22 2 29 -9 29 -18 0 -20 30 -2 31 6 0 36 0 66 -1 l53 -2 -6 34 c-4 18 -7 41
-7 51 0 9 -5 17 -10 17 -6 0 -7 -4 -4 -10 3 -5 -3 -10 -14 -10 -11 0 -23 5
-27 11 -8 14 -53 3 -79 -20 -11 -10 -26 -21 -32 -25 -18 -10 -4 26 14 37 7 4
13 15 13 22 0 8 5 15 10 15 6 0 10 7 10 16 0 8 7 22 15 30 8 9 15 24 15 35 0
16 -7 19 -45 19 -25 0 -45 5 -45 10 0 6 -3 9 -7 9 -19 -3 -33 2 -33 11 0 6 23
10 50 10 28 0 50 5 50 10 0 6 10 10 23 10 31 1 75 62 83 116 7 50 8 50 33 2z
m-5989 2 c0 -5 -4 -10 -10 -10 -5 0 -10 5 -10 10 0 6 5 10 10 10 6 0 10 -4 10
-10z m-2230 -151 c0 -5 -7 -9 -15 -9 -15 0 -20 12 -9 23 8 8 24 -1 24 -14z
m8683 -26 c-7 -2 -21 -2 -30 0 -10 3 -4 5 12 5 17 0 24 -2 18 -5z m-7263 -13
c0 -5 -9 -10 -20 -10 -11 0 -20 5 -20 10 0 6 9 10 20 10 11 0 20 -4 20 -10z
m4290 0 c0 -5 -7 -10 -15 -10 -8 0 -15 5 -15 10 0 6 7 10 15 10 8 0 15 -4 15
-10z m8960 0 c12 -8 9 -10 -13 -10 -16 0 -26 4 -22 10 8 12 16 12 35 0z m1145
-20 c3 -5 -1 -10 -10 -10 -9 0 -13 5 -10 10 3 6 8 10 10 10 2 0 7 -4 10 -10z
m-25165 -50 c0 -15 -7 -20 -25 -20 -24 0 -34 18 -18 33 15 15 43 7 43 -13z
m17200 -75 c0 -8 7 -21 16 -30 24 -23 12 -28 -35 -13 -31 10 -41 18 -41 35 0
12 6 23 13 26 19 6 47 -4 47 -18z m900 -21 c0 -8 5 -14 11 -14 12 0 38 -29 39
-42 0 -15 -43 -8 -62 9 -18 16 -24 53 -12 66 10 9 24 -2 24 -19z m-1945 -164
c3 -5 -3 -10 -14 -10 -12 0 -21 5 -21 10 0 6 6 10 14 10 8 0 18 -4 21 -10z
m9015 -10 c0 -11 -4 -20 -9 -20 -11 0 -22 26 -14 34 12 12 23 5 23 -14z
m10245 10 c12 -20 -6 -50 -30 -50 -27 0 -36 17 -23 43 9 19 43 23 53 7z m852
-122 c-3 -8 -6 -5 -6 6 -1 11 2 17 5 13 3 -3 4 -12 1 -19z m-11312 -38 c15
-48 -26 -80 -61 -46 -18 19 -18 46 1 46 8 0 15 5 15 10 0 19 39 10 45 -10z
m-1769 -34 c8 -8 14 -20 14 -26 0 -15 -25 -40 -40 -40 -15 0 -40 25 -40 40 0
16 23 39 38 40 7 0 20 -6 28 -14z m2484 -17 c0 -5 -9 -9 -20 -9 -19 0 -26 11
-14 23 8 8 34 -3 34 -14z m-7786 -38 c3 -5 0 -11 -8 -14 -15 -6 -26 1 -26 15
0 11 27 10 34 -1z m12956 -90 c0 -10 -7 -22 -16 -25 -23 -9 -24 -8 -24 19 0
18 5 25 20 25 13 0 20 -7 20 -19z m-6705 -31 c3 -5 -1 -10 -10 -10 -9 0 -13 5
-10 10 3 6 8 10 10 10 2 0 7 -4 10 -10z m1962 -35 c10 -10 13 -24 9 -40 -5
-21 -13 -25 -41 -25 -29 0 -36 4 -41 25 -12 47 39 74 73 40z m-5139 -88 c2
-12 -3 -17 -17 -17 -15 0 -21 6 -21 21 0 25 33 22 38 -4z m11606 -162 c5 -21
2 -33 -9 -41 -8 -6 -15 -19 -15 -28 0 -12 -10 -16 -40 -16 -33 0 -40 3 -40 20
0 11 -4 20 -10 20 -18 0 -11 30 13 54 16 18 32 24 59 23 32 -2 37 -6 42 -32z
m-15634 -4 c0 -23 -19 -32 -42 -19 -24 12 -11 38 18 38 17 0 24 -6 24 -19z
m11546 -35 c8 -8 14 -26 14 -40 0 -22 -4 -26 -30 -26 -26 0 -30 4 -30 28 0 15
5 33 12 40 15 15 16 15 34 -2z m-2946 -101 c0 -16 -27 -32 -37 -22 -3 4 -3 13
0 22 8 20 37 20 37 0z m-2866 -71 c22 -9 20 -31 -4 -39 -26 -8 -40 1 -40 26 0
19 15 24 44 13z m8856 -4 c0 -5 -8 -10 -17 -10 -15 0 -16 2 -3 10 19 12 20 12
20 0z m-4954 -51 c8 -14 -11 -33 -25 -25 -11 7 -4 36 9 36 5 0 12 -5 16 -11z
m7414 -19 c0 -5 -7 -10 -15 -10 -8 0 -15 5 -15 10 0 6 7 10 15 10 8 0 15 -4
15 -10z m-8779 -72 c37 -42 15 -97 -39 -98 -13 0 -30 6 -38 14 -17 18 -18 72
-1 91 18 21 57 18 78 -7z m-381 -138 c0 -11 -4 -20 -10 -20 -5 0 -10 9 -10 20
0 11 5 20 10 20 6 0 10 -9 10 -20z m1318 8 c19 -19 14 -52 -9 -66 -18 -11 -24
-11 -40 4 -31 28 -18 74 21 74 9 0 21 -5 28 -12z m2042 -33 c0 -8 -7 -15 -15
-15 -8 0 -15 7 -15 15 0 8 7 15 15 15 8 0 15 -7 15 -15z m6723 8 c-7 -2 -19
-2 -25 0 -7 3 -2 5 12 5 14 0 19 -2 13 -5z m-20813 -43 c0 -5 -4 -10 -10 -10
-5 0 -10 5 -10 10 0 6 5 10 10 10 6 0 10 -4 10 -10z m10274 -6 c12 -5 13 -10
5 -25 -13 -24 -39 -25 -39 -1 0 29 9 36 34 26z m93 -36 c36 -17 93 -73 93 -93
0 -8 4 -15 8 -15 5 0 9 -7 9 -16 0 -33 -96 15 -97 48 0 9 -11 29 -25 44 -23
25 -32 44 -20 44 2 0 17 -6 32 -12z m-5307 -78 c0 -5 -7 -10 -15 -10 -8 0 -15
5 -15 10 0 6 7 10 15 10 8 0 15 -4 15 -10z m5790 -21 c0 -5 -9 -9 -20 -9 -19
0 -27 20 -13 33 7 8 33 -11 33 -24z m-21773 -21 c-3 -8 -6 -5 -6 6 -1 11 2 17
5 13 3 -3 4 -12 1 -19z m31980 -4 c-3 -3 -12 -4 -19 -1 -8 3 -5 6 6 6 11 1 17
-2 13 -5z m-10467 -33 c9 -9 27 -23 39 -31 13 -8 32 -23 43 -32 12 -10 28 -18
37 -18 14 0 14 -2 1 -10 -12 -8 -12 -10 5 -10 17 0 17 -2 5 -10 -12 -8 -9 -10
11 -10 23 0 28 -6 39 -47 7 -27 12 -52 11 -57 -1 -4 9 -6 23 -2 34 8 39 -5 16
-51 -10 -22 -22 -51 -25 -66 -4 -16 -12 -24 -18 -20 -6 4 -2 -9 10 -28 28 -46
21 -59 -34 -59 -36 0 -46 4 -50 20 -3 13 -14 20 -29 20 -13 0 -24 5 -24 11 0
7 9 9 24 5 14 -3 28 -1 33 7 13 17 0 62 -17 62 -9 0 -15 10 -15 26 0 41 -63
119 -96 119 -10 0 -19 11 -22 29 -3 16 -13 36 -22 45 -9 9 -14 20 -11 24 3 5
0 26 -6 46 -11 34 -10 40 6 51 20 15 40 10 66 -14z m550 -56 c0 -8 -4 -15 -10
-15 -5 0 -10 7 -10 15 0 8 5 15 10 15 6 0 10 -7 10 -15z m-900 -45 c0 -15 -7
-20 -25 -20 -18 0 -25 5 -25 20 0 15 7 20 25 20 18 0 25 -5 25 -20z m-240 -19
c0 -10 -7 -24 -15 -31 -21 -18 -53 14 -35 35 18 22 50 19 50 -4z m-11670 -70
c0 -5 -7 -14 -15 -21 -13 -10 -15 -9 -15 9 0 12 6 21 15 21 8 0 15 -4 15 -9z
m12326 -116 c21 -51 18 -65 -14 -65 -34 0 -52 16 -52 46 0 63 42 75 66 19z
m-158 -12 c16 -31 -15 -80 -43 -69 -15 5 -21 66 -8 79 12 13 42 7 51 -10z
m-158 -34 c0 -12 -7 -19 -20 -19 -22 0 -29 35 -7 43 18 6 27 -2 27 -24z m-570
17 c0 -2 -7 -6 -15 -10 -8 -3 -15 -1 -15 4 0 6 7 10 15 10 8 0 15 -2 15 -4z
m-114 -50 c24 -25 17 -46 -16 -46 -27 0 -30 3 -30 30 0 33 21 40 46 16z m324
4 c0 -5 -4 -10 -10 -10 -5 0 -10 5 -10 10 0 6 5 10 10 10 6 0 10 -4 10 -10z
m-174 -24 c20 -20 18 -26 -10 -26 -19 0 -23 4 -19 20 6 24 10 25 29 6z m-2876
-26 c0 -13 -7 -20 -20 -20 -13 0 -20 7 -20 20 0 13 7 20 20 20 13 0 20 -7 20
-20z m4013 8 c-2 -5 -3 -22 -3 -40 0 -28 -2 -30 -14 -18 -7 8 -16 28 -20 43
-6 25 -4 28 16 25 13 -2 22 -6 21 -10z m-1213 -47 c0 -10 -7 -24 -15 -31 -20
-17 -47 9 -33 33 13 24 48 22 48 -2z m1128 12 c-3 -5 -11 -23 -18 -40 -13 -31
-30 -44 -30 -24 0 39 14 71 32 71 11 0 18 -3 16 -7z m-460 -35 c3 -14 -3 -18
-27 -18 -29 0 -41 17 -24 34 13 13 48 1 51 -16z m276 -4 c19 -7 22 -63 4 -66
-37 -4 -44 -2 -55 16 -21 37 9 66 51 50z m-14877 -50 c-3 -3 -12 -4 -19 -1 -8
3 -5 6 6 6 11 1 17 -2 13 -5z m14824 -92 c-6 -2 -9 -8 -5 -13 8 -13 -10 -11
-24 3 -18 18 -15 26 11 30 23 3 39 -13 18 -20z m225 -95 c-2 -10 4 -27 15 -38
12 -12 19 -33 19 -59 0 -22 5 -40 10 -40 6 0 10 -15 10 -34 0 -51 9 -66 39
-66 20 0 23 2 11 10 -12 8 -10 10 9 10 21 0 23 -4 19 -40 -2 -22 0 -40 5 -40
5 0 16 -7 24 -16 14 -13 14 -17 2 -25 -8 -5 -19 -9 -26 -9 -11 0 -41 -52 -47
-82 -21 -103 -30 -118 -40 -64 -4 19 -14 37 -22 40 -30 11 -92 6 -104 -9 -7
-8 -16 -12 -21 -9 -15 9 -10 56 7 76 16 16 16 18 0 24 -9 3 -23 4 -31 0 -9 -3
-15 0 -15 8 0 8 -7 16 -15 19 -11 5 -13 18 -8 59 3 29 11 59 17 67 8 11 8 15
-1 18 -7 3 -13 13 -13 23 0 10 -9 22 -20 25 -15 5 -20 15 -20 41 0 19 3 33 8
33 20 -3 32 3 32 17 0 28 -32 49 -74 49 -49 0 -57 24 -13 40 23 8 31 6 41 -7
11 -15 13 -15 24 3 8 13 9 19 1 19 -5 0 -7 5 -4 10 3 6 19 10 35 10 22 0 32
-7 43 -29 13 -26 13 -31 -1 -45 -18 -18 -5 -40 29 -49 17 -5 20 -2 16 14 -4
15 0 19 21 19 19 0 23 3 15 11 -11 11 -8 65 4 99 8 20 25 -59 19 -83z m-22576
-8 c0 -14 -5 -19 -17 -17 -26 5 -29 38 -4 38 15 0 21 -6 21 -21z m21590 1 c0
-13 -7 -20 -20 -20 -13 0 -20 7 -20 20 0 13 7 20 20 20 13 0 20 -7 20 -20z
m334 -6 c9 -3 16 -17 16 -30 0 -20 -5 -24 -30 -24 -25 0 -30 4 -30 24 0 13 6
27 13 29 6 3 13 6 14 6 1 1 8 -2 17 -5z m-675 -33 c17 -11 7 -41 -14 -41 -9 0
-15 9 -15 25 0 27 6 30 29 16z m1041 -1 c0 -5 -7 -10 -15 -10 -8 0 -15 5 -15
10 0 6 7 10 15 10 8 0 15 -4 15 -10z m5090 -55 c0 -8 -4 -15 -10 -15 -5 0 -10
7 -10 15 0 8 5 15 10 15 6 0 10 -7 10 -15z m-5082 -32 c2 -8 -5 -13 -17 -13
-12 0 -21 6 -21 16 0 18 31 15 38 -3z m1938 2 c4 -8 0 -22 -7 -31 -10 -13 -14
-13 -26 -1 -16 16 -7 47 13 47 8 0 17 -7 20 -15z m1484 -39 c0 -9 -7 -12 -20
-9 -11 3 -20 9 -20 14 0 5 9 9 20 9 11 0 20 -6 20 -14z m1006 0 c19 -20 7 -46
-22 -46 -24 0 -30 14 -18 44 8 20 21 20 40 2z m-656 -68 c0 -18 -2 -20 -9 -8
-6 8 -7 18 -5 22 9 14 14 9 14 -14z m-7120 -9 c0 -5 -9 -9 -20 -9 -19 0 -26
11 -14 23 8 8 34 -3 34 -14z m1370 -74 c0 -8 -9 -15 -20 -15 -11 0 -20 7 -20
15 0 8 9 15 20 15 11 0 20 -7 20 -15z m4710 -35 c0 -13 -7 -20 -20 -20 -13 0
-20 7 -20 20 0 13 7 20 20 20 13 0 20 -7 20 -20z m-26750 -62 c0 -23 -23 -48
-42 -48 -37 0 -55 75 -20 82 27 6 62 -13 62 -34z m24450 -38 c0 -5 -4 -10 -10
-10 -5 0 -10 5 -10 10 0 6 5 10 10 10 6 0 10 -4 10 -10z m-990 -14 c0 -12 -13
-36 -19 -36 -4 0 -7 9 -8 20 -1 11 4 20 13 20 8 0 14 -2 14 -4z m-11560 -20
c0 -2 3 -11 6 -20 4 -12 0 -16 -15 -16 -14 0 -21 6 -21 20 0 11 7 20 15 20 8
0 15 -2 15 -4z m6450 -121 c0 -8 -4 -15 -10 -15 -5 0 -10 7 -10 15 0 8 5 15
10 15 6 0 10 -7 10 -15z m5830 -44 c0 -14 -6 -19 -20 -18 -33 2 -22 33 13 36
4 1 7 -8 7 -18z m10625 -30 c-9 -16 -25 -3 -18 15 4 10 9 12 15 6 6 -6 7 -15
3 -21z m-6995 -31 c0 -13 -7 -20 -20 -20 -19 0 -27 20 -13 33 13 14 33 6 33
-13z m-1812 -182 c7 -9 6 -17 -3 -25 -15 -14 -25 -7 -25 19 0 21 13 24 28 6z
m-14878 -48 c0 -11 -7 -20 -15 -20 -8 0 -15 9 -15 20 0 11 7 20 15 20 8 0 15
-9 15 -20z m12444 4 c10 -4 16 -18 16 -35 0 -25 -4 -29 -29 -29 -31 0 -43 16
-34 49 5 21 19 26 47 15z m-5104 -131 c0 -5 -4 -14 -9 -22 -8 -12 -12 -12 -25
2 -22 22 -20 27 9 27 14 0 25 -3 25 -7z m5034 -29 c7 -19 -10 -44 -31 -44 -17
0 -27 24 -19 45 7 20 42 19 50 -1z m-2014 -49 c0 -8 -4 -15 -10 -15 -5 0 -7 7
-4 15 4 8 8 15 10 15 2 0 4 -7 4 -15z m5020 -101 c0 -17 -22 -14 -28 4 -2 7 3
12 12 12 9 0 16 -7 16 -16z m-21156 -19 c7 -18 -3 -45 -16 -45 -5 0 -16 7 -24
15 -13 12 -13 17 -2 29 17 20 34 20 42 1z m13646 5 c0 -5 -4 -10 -10 -10 -5 0
-10 5 -10 10 0 6 5 10 10 10 6 0 10 -4 10 -10z m-17976 -171 c-3 -5 -10 -7
-15 -3 -5 3 -7 10 -3 15 3 5 10 7 15 3 5 -3 7 -10 3 -15z m20264 -61 c-6 -18
-28 -21 -28 -4 0 9 7 16 16 16 9 0 14 -5 12 -12z m1742 -58 c0 -5 -2 -10 -4
-10 -3 0 -8 5 -11 10 -3 6 -1 10 4 10 6 0 11 -4 11 -10z m-13144 -155 c1 -8
-2 -15 -7 -15 -5 0 -9 10 -9 22 0 23 12 17 16 -7z m12671 -471 c-3 -3 -12 -4
-19 -1 -8 3 -5 6 6 6 11 1 17 -2 13 -5z m-16689 -68 c-13 -14 -28 -12 -28 5 0
5 9 9 20 9 17 0 19 -2 8 -14z m24982 -41 c0 -8 -6 -15 -14 -15 -8 0 -16 7 -20
15 -4 10 1 15 14 15 11 0 20 -7 20 -15z m-22680 -230 c0 -8 -4 -15 -10 -15 -5
0 -10 7 -10 15 0 8 5 15 10 15 6 0 10 -7 10 -15z m12817 -7 c-3 -8 -6 -5 -6 6
-1 11 2 17 5 13 3 -3 4 -12 1 -19z m-4027 -168 c0 -5 -5 -10 -11 -10 -5 0 -7
5 -4 10 3 6 8 10 11 10 2 0 4 -4 4 -10z m-11013 -91 c16 -16 5 -39 -18 -39
-14 0 -19 7 -19 25 0 26 18 33 37 14z m6426 -16 c-7 -2 -19 -2 -25 0 -7 3 -2
5 12 5 14 0 19 -2 13 -5z m2207 -63 c0 -23 -4 -30 -20 -30 -16 0 -20 7 -20 30
0 23 4 30 20 30 16 0 20 -7 20 -30z m5130 20 c0 -5 -4 -10 -10 -10 -5 0 -10 5
-10 10 0 6 5 10 10 10 6 0 10 -4 10 -10z m-8080 -25 c0 -8 -4 -15 -10 -15 -5
0 -10 7 -10 15 0 8 5 15 10 15 6 0 10 -7 10 -15z m-3280 -15 c0 -5 -4 -10 -10
-10 -5 0 -10 5 -10 10 0 6 5 10 10 10 6 0 10 -4 10 -10z m18850 -100 c0 -5 -9
-10 -20 -10 -11 0 -20 5 -20 10 0 6 9 10 20 10 11 0 20 -4 20 -10z m-11500
-26 c0 -8 -4 -12 -10 -9 -5 3 -10 10 -10 16 0 5 5 9 10 9 6 0 10 -7 10 -16z
m-3570 -345 c0 -11 -4 -17 -10 -14 -5 3 -10 13 -10 21 0 8 5 14 10 14 6 0 10
-9 10 -21z m14220 -169 c0 -23 -5 -30 -19 -30 -21 0 -33 22 -25 45 4 8 15 15
25 15 14 0 19 -7 19 -30z m-3400 -55 c0 -8 -7 -15 -15 -15 -8 0 -15 7 -15 15
0 8 7 15 15 15 8 0 15 -7 15 -15z m2570 -89 c0 -26 -20 -39 -45 -30 -8 4 -15
17 -15 30 0 20 5 24 30 24 25 0 30 -4 30 -24z m-3550 -17 c0 -5 -4 -9 -10 -9
-5 0 -10 7 -10 16 0 8 5 12 10 9 6 -3 10 -10 10 -16z m3320 -9 c0 -5 -5 -10
-11 -10 -5 0 -7 5 -4 10 3 6 8 10 11 10 2 0 4 -4 4 -10z m-2546 -186 c10 -4
16 -18 16 -35 0 -22 -6 -30 -24 -35 -38 -9 -61 -1 -64 24 -6 41 28 63 72 46z
m2796 -114 c0 -16 -7 -20 -30 -20 -18 0 -30 5 -30 13 0 20 10 27 37 27 16 0
23 -6 23 -20z m-2709 -4 c5 3 9 -4 9 -15 0 -12 5 -21 10 -21 6 0 10 -11 10
-24 0 -36 61 -51 84 -22 15 20 66 32 66 17 0 -7 -9 -30 -20 -53 -23 -48 -14
-68 31 -68 15 0 31 -4 34 -10 3 -5 17 -10 30 -10 33 0 55 -10 55 -24 0 -8 -22
-13 -67 -14 -38 -1 -69 -7 -71 -12 -2 -6 -10 -10 -17 -10 -8 0 -17 -9 -20 -20
-3 -11 -12 -20 -18 -20 -7 0 -18 -9 -24 -20 -18 -28 22 -179 46 -175 24 3 41
-20 41 -58 0 -37 21 -64 41 -51 7 4 9 3 6 -3 -4 -6 0 -14 9 -17 27 -11 52 -7
57 9 4 11 4 10 3 -2 -1 -10 7 -25 18 -34 18 -14 18 -19 7 -33 -8 -9 -12 -18
-10 -19 2 -2 16 -10 30 -19 21 -14 27 -25 27 -57 0 -22 -3 -43 -9 -46 -11 -7
17 -65 31 -65 6 0 10 -7 10 -15 0 -9 8 -18 18 -21 45 -15 84 -37 89 -50 3 -8
16 -14 28 -14 14 0 26 -7 30 -18 9 -29 49 -44 72 -27 10 8 28 15 39 15 12 0
27 7 34 15 7 8 23 15 36 15 12 0 29 9 38 21 20 30 120 29 148 -1 10 -11 28
-20 39 -20 11 0 18 -4 15 -9 -7 -11 16 -71 27 -71 5 0 20 -9 34 -20 14 -11 29
-17 34 -14 5 3 9 2 9 -3 0 -4 11 -21 25 -37 14 -16 25 -32 25 -36 0 -4 16 -27
35 -51 19 -24 35 -52 35 -61 0 -9 8 -23 18 -30 17 -13 36 -47 46 -83 3 -11 17
-32 31 -47 17 -18 25 -39 25 -63 0 -30 3 -35 24 -35 21 0 24 -6 28 -42 3 -24
1 -48 -4 -55 -10 -12 -38 -6 -49 10 -4 5 -25 11 -48 13 -30 2 -43 -2 -50 -14
-8 -14 -13 -15 -29 -5 -11 6 -29 9 -41 6 -14 -3 -21 -1 -21 8 0 8 -10 20 -21
28 -43 26 -47 -21 -9 -104 21 -44 7 -64 -18 -26 -8 11 -20 21 -26 21 -7 0 -19
15 -27 33 -11 26 -20 32 -46 33 -37 0 -48 8 -38 24 5 8 11 8 19 1 21 -18 40
29 37 95 -1 22 -8 34 -25 42 -27 12 -40 3 -49 -33 -4 -19 -5 -19 -6 1 0 12 -7
24 -14 27 -8 3 -19 30 -25 61 -11 52 -10 60 13 103 20 37 23 49 13 61 -18 21
-38 83 -38 118 0 17 -6 36 -12 41 -19 15 -48 12 -48 -5 0 -9 -3 -12 -6 -9 -7
7 -44 -30 -44 -43 0 -4 -27 -15 -60 -24 -57 -16 -60 -19 -60 -49 -1 -28 -2
-30 -13 -16 -17 22 -78 59 -98 59 -17 0 -56 37 -51 49 1 3 -14 7 -33 9 -19 2
-33 7 -30 13 4 5 -24 9 -67 9 -54 0 -69 -3 -58 -11 12 -8 9 -10 -13 -6 -16 2
-46 0 -66 -5 -55 -14 -109 14 -102 55 2 12 -18 8 -43 -8 -20 -13 -26 -14 -37
-3 -48 46 -72 58 -109 52 -28 -5 -41 -2 -51 11 -23 29 -113 121 -106 108 4 -6
2 -23 -5 -38 -10 -22 -9 -28 2 -35 8 -5 12 -12 8 -15 -15 -15 -59 29 -69 71
-6 23 -20 50 -30 60 -14 12 -19 31 -19 66 0 27 -5 48 -11 48 -5 0 -8 4 -5 9 3
5 0 14 -8 20 -11 9 -15 9 -19 -1 -11 -31 -22 10 -21 78 1 62 6 81 28 114 26
40 34 66 16 55 -5 -3 -10 0 -10 8 0 7 11 19 25 25 14 6 25 20 25 30 0 20 57
75 70 67 5 -3 18 4 28 16 19 20 21 20 31 2 10 -17 10 -17 11 0 0 9 5 17 10 17
6 0 10 5 10 10 0 6 -7 10 -15 10 -9 0 -15 9 -15 25 0 20 -6 25 -37 32 -21 4
-46 6 -55 4 -10 -1 -27 4 -37 12 -20 13 -19 14 7 29 16 10 66 19 125 23 74 6
97 11 97 22 0 8 4 12 9 9 4 -3 18 3 30 13 16 14 21 30 21 69 0 52 10 96 18 74
2 -7 8 -10 13 -6z m1535 -38 c-1 -25 -34 -37 -46 -17 -13 19 0 39 25 39 17 0
22 -5 21 -22z m-2078 -123 c6 -14 18 -25 27 -25 8 0 24 -9 34 -19 18 -18 18
-19 -5 -30 -13 -6 -24 -17 -24 -25 0 -7 -7 -17 -16 -20 -18 -7 -14 -28 7 -32
66 -12 119 -52 119 -88 -1 -25 -28 -127 -29 -108 -2 24 -21 1 -21 -24 0 -35
-28 -96 -41 -92 -7 2 -20 18 -29 36 -10 17 -20 29 -24 25 -3 -3 -6 11 -6 31 0
30 -4 39 -21 43 -12 4 -18 11 -15 20 4 8 9 32 12 52 5 33 3 39 -15 44 -16 4
-21 13 -21 36 0 18 -7 42 -15 55 -12 18 -14 37 -9 75 6 45 9 51 30 51 12 0 26
5 29 10 10 16 21 11 33 -15z m379 -1 c-3 -3 -12 -4 -19 -1 -8 3 -5 6 6 6 11 1
17 -2 13 -5z m676 -56 c9 -28 -5 -48 -34 -48 -24 0 -29 4 -29 26 0 14 4 23 10
19 6 -3 10 -1 10 4 0 15 37 14 43 -1z m-913 -8 c13 -8 13 -10 -2 -10 -9 0 -20
5 -23 10 -8 13 5 13 25 0z m5990 -15 c-12 -15 -30 -12 -30 6 0 5 10 9 21 9 18
0 19 -2 9 -15z m-7433 -47 c-3 -8 -6 -5 -6 6 -1 11 2 17 5 13 3 -3 4 -12 1
-19z m-947 -248 c0 -13 -7 -20 -18 -20 -24 0 -32 8 -25 26 8 22 43 17 43 -6z
m5765 10 c3 -5 1 -10 -4 -10 -6 0 -11 5 -11 10 0 6 2 10 4 10 3 0 8 -4 11 -10z
m-19195 -40 c0 -5 -4 -10 -10 -10 -5 0 -10 5 -10 10 0 6 5 10 10 10 6 0 10 -4
10 -10z m16641 -76 c5 -15 8 -28 6 -30 -7 -7 -74 -7 -85 0 -19 12 -14 36 11
46 39 15 57 11 68 -16z m657 -257 c14 -11 16 -47 2 -47 -5 0 -10 -7 -10 -15 0
-20 -43 -29 -69 -15 -26 13 -29 74 -5 88 18 10 63 4 82 -11z m662 -38 c0 -5
-7 -9 -15 -9 -15 0 -20 12 -9 23 8 8 24 -1 24 -14z m-14290 -60 c0 -18 -30
-41 -45 -35 -13 5 -13 8 2 26 19 21 43 27 43 9z m18398 -266 c-5 -26 -38 -29
-38 -4 0 15 6 21 21 21 14 0 19 -5 17 -17z m-5143 -15 c6 -4 2 -8 -7 -8 -10 0
-18 7 -18 17 0 9 3 12 8 7 4 -5 12 -12 17 -16z m73 -67 c3 -8 -1 -12 -9 -9 -7
2 -15 10 -17 17 -3 8 1 12 9 9 7 -2 15 -10 17 -17z m31 -61 c10 -22 21 -37 25
-32 5 4 6 -10 3 -31 -6 -43 -17 -62 -17 -29 0 11 -4 24 -10 27 -5 3 -10 20
-10 36 0 18 -4 28 -10 24 -6 -4 -10 5 -10 19 0 36 8 32 29 -14z m5915 11 c3
-5 -1 -14 -9 -21 -8 -7 -15 -10 -15 -7 0 3 -3 12 -6 21 -7 17 20 23 30 7z
m5545 -3 c58 -13 65 -30 21 -48 -16 -7 -30 -16 -30 -20 0 -14 -52 -30 -100
-30 -50 0 -50 0 -50 33 0 28 6 37 38 54 45 25 56 26 121 11z m128 -113 c-4 -8
-11 -15 -17 -15 -14 0 -13 27 3 33 16 6 21 1 14 -18z m-11537 1 c0 -8 -4 -18
-10 -21 -5 -3 -10 3 -10 14 0 12 5 21 10 21 6 0 10 -6 10 -14z m910 -206 c0
-11 -4 -20 -9 -20 -11 0 -22 26 -14 34 12 12 23 5 23 -14z m4760 -90 c0 -11
-4 -20 -10 -20 -5 0 -10 7 -10 16 0 8 -4 12 -10 9 -5 -3 -10 -1 -10 4 0 6 9
11 20 11 13 0 20 -7 20 -20z m-5148 -53 c7 -8 20 -17 28 -20 8 -4 -2 -5 -24
-3 -44 6 -51 10 -41 25 8 15 21 14 37 -2z m-55 -19 c-3 -8 -6 -5 -6 6 -1 11 2
17 5 13 3 -3 4 -12 1 -19z m6053 -348 c0 -5 -9 -10 -20 -10 -11 0 -20 5 -20
10 0 6 9 10 20 10 11 0 20 -4 20 -10z m3050 -254 c0 -16 -34 -31 -50 -21 -15
10 -12 23 8 28 32 9 42 7 42 -7z m-12120 -66 c0 -19 -11 -26 -23 -14 -8 8 3
34 14 34 5 0 9 -9 9 -20z m9530 -111 c0 -12 -7 -19 -20 -19 -22 0 -29 35 -7
43 18 6 27 -2 27 -24z m-13770 -69 c0 -5 -7 -10 -15 -10 -8 0 -15 5 -15 10 0
6 7 10 15 10 8 0 15 -4 15 -10z m848 -18 c2 -7 -3 -12 -12 -12 -9 0 -16 7 -16
16 0 17 22 14 28 -4z m-8791 -324 c16 -13 5 -38 -17 -38 -24 0 -33 15 -25 40
6 19 14 19 42 -2z m22453 -198 c0 -5 -4 -10 -10 -10 -5 0 -10 5 -10 10 0 6 5
10 10 10 6 0 10 -4 10 -10z m6037 -102 c-3 -7 -5 -2 -5 12 0 14 2 19 5 13 2
-7 2 -19 0 -25z m-7697 -13 c0 -8 -4 -15 -10 -15 -5 0 -10 7 -10 15 0 8 5 15
10 15 6 0 10 -7 10 -15z m-25630 -235 c0 -5 -4 -10 -10 -10 -5 0 -10 5 -10 10
0 6 5 10 10 10 6 0 10 -4 10 -10z m13950 -104 c0 -2 -3 -11 -6 -20 -5 -13 -8
-13 -20 -1 -19 19 -18 25 6 25 11 0 20 -2 20 -4z m-1970 -146 c0 -5 -9 -10
-20 -10 -11 0 -20 5 -20 10 0 6 9 10 20 10 11 0 20 -4 20 -10z m14437 -22 c-3
-8 -6 -5 -6 6 -1 11 2 17 5 13 3 -3 4 -12 1 -19z m6508 -28 c-3 -5 -10 -10
-16 -10 -5 0 -9 5 -9 10 0 6 7 10 16 10 8 0 12 -4 9 -10z m-1911 -56 c9 -3 16
-17 16 -30 0 -20 -5 -24 -30 -24 -25 0 -30 4 -30 23 0 35 12 43 44 31z m-5464
-44 c0 -5 -4 -10 -10 -10 -5 0 -10 5 -10 10 0 6 5 10 10 10 6 0 10 -4 10 -10z
m7850 -81 c0 -5 -4 -9 -10 -9 -5 0 -10 7 -10 16 0 8 5 12 10 9 6 -3 10 -10 10
-16z m-5048 -71 c8 -21 -2 -38 -23 -38 -19 0 -27 29 -12 43 11 11 31 8 35 -5z
m-4282 -172 c0 -10 -9 -16 -25 -16 -27 0 -34 22 -13 44 10 11 15 11 25 0 7 -7
13 -20 13 -28z m-24880 14 c0 -5 -4 -10 -10 -10 -5 0 -10 5 -10 10 0 6 5 10
10 10 6 0 10 -4 10 -10z m27347 -146 c-3 -3 -12 -4 -19 -1 -8 3 -5 6 6 6 11 1
17 -2 13 -5z m-20207 -104 c0 -5 -4 -10 -10 -10 -5 0 -10 5 -10 10 0 6 5 10
10 10 6 0 10 -4 10 -10z m21690 -20 c0 -5 -4 -10 -10 -10 -5 0 -10 5 -10 10 0
6 5 10 10 10 6 0 10 -4 10 -10z m990 -150 c0 -5 7 -16 16 -24 8 -9 11 -16 5
-16 -6 0 -11 -7 -11 -15 0 -8 -6 -15 -14 -15 -8 0 -22 -10 -30 -22 -9 -12 -16
-17 -16 -10 0 6 -11 12 -24 12 -32 0 -42 44 -15 71 11 11 19 23 19 27 0 4 16
6 35 4 19 -2 35 -8 35 -12z m-21159 -480 c9 0 19 -8 23 -17 3 -10 9 -23 12
-30 3 -6 -4 -14 -15 -18 -11 -3 -23 -15 -26 -25 -5 -17 -9 -18 -33 -7 -48 21
-53 37 -24 79 17 23 31 33 37 27 5 -5 17 -9 26 -9z m16869 -160 c0 -5 -4 -10
-10 -10 -5 0 -10 5 -10 10 0 6 5 10 10 10 6 0 10 -4 10 -10z m-16694 -427 c-3
-3 -13 -2 -23 2 -17 7 -17 8 2 15 19 7 34 -5 21 -17z m-8546 -463 c0 -5 -4
-10 -10 -10 -5 0 -10 5 -10 10 0 6 5 10 10 10 6 0 10 -4 10 -10z m19570 -220
c0 -14 -7 -20 -21 -20 -17 0 -19 3 -10 13 6 8 8 17 4 20 -3 4 1 7 10 7 10 0
17 -8 17 -20z m-10100 -244 c0 -25 -12 -46 -25 -46 -16 0 -29 35 -20 50 9 15
45 12 45 -4z m14750 -31 c0 -27 -1 -28 -24 -19 -21 8 -21 24 0 24 8 0 12 5 9
10 -3 6 -1 10 4 10 6 0 11 -11 11 -25z m-21614 -141 c12 -3 26 -16 32 -29 8
-18 7 -27 -8 -43 -10 -11 -16 -23 -13 -26 4 -3 -1 -6 -10 -6 -9 0 -17 -6 -18
-12 0 -10 -2 -10 -6 0 -2 6 -15 12 -28 12 -17 0 -24 7 -27 28 -2 16 1 34 6 40
6 6 17 18 24 27 14 17 17 17 48 9z m27094 -144 c0 -13 -7 -20 -20 -20 -13 0
-20 7 -20 20 0 13 7 20 20 20 13 0 20 -7 20 -20z m-18410 -170 c0 -13 -7 -20
-20 -20 -13 0 -20 7 -20 20 0 13 7 20 20 20 13 0 20 -7 20 -20z m12810 -1180
c0 -13 -7 -20 -20 -20 -13 0 -20 7 -20 20 0 13 7 20 20 20 13 0 20 -7 20 -20z
m-17250 -366 c0 -33 -33 -30 -38 4 -3 17 2 22 17 22 16 0 21 -6 21 -26z m680
-479 c0 -8 -6 -15 -14 -15 -17 0 -28 14 -19 24 12 12 33 6 33 -9z m9120 -269
c0 -28 -18 -46 -47 -46 -42 0 -52 58 -14 86 21 16 61 -11 61 -40z"/>
<path d="M17853 16099 c-4 -16 -8 -17 -14 -7 -7 10 -9 11 -9 0 0 -7 -4 -10
-10 -7 -5 3 -10 -3 -10 -15 0 -18 4 -20 23 -14 25 8 37 22 37 47 0 24 -11 22
-17 -4z"/>
<path d="M24948 14258 c-7 -16 7 -45 14 -32 3 5 2 18 -2 28 -5 16 -8 17 -12 4z"/>
<path d="M25021 13505 c0 -11 -10 -28 -21 -38 -23 -19 -19 -37 8 -37 26 0 49
18 35 28 -6 4 -13 21 -16 37 -2 17 -5 21 -6 10z"/>
<path d="M24961 13444 c0 -11 3 -14 6 -6 3 7 2 16 -1 19 -3 4 -6 -2 -5 -13z"/>
<path d="M23827 8973 c-3 -5 -2 -15 2 -22 7 -10 10 -10 16 -1 4 6 3 16 -3 22
-5 5 -12 6 -15 1z"/>
<path d="M23785 8630 c4 -6 11 -8 16 -5 14 9 11 15 -7 15 -8 0 -12 -5 -9 -10z"/>
<path d="M24598 8403 c7 -3 16 -2 19 1 4 3 -2 6 -13 5 -11 0 -14 -3 -6 -6z"/>
<path d="M24720 8310 c0 -16 5 -30 10 -30 6 0 15 -10 20 -22 7 -20 9 -17 9 18
1 37 -12 64 -31 64 -4 0 -8 -13 -8 -30z"/>
<path d="M24831 8252 c-6 -11 -11 -37 -11 -56 0 -30 4 -36 23 -37 12 0 31 -2
42 -5 27 -5 65 4 65 16 0 6 -12 15 -26 20 -14 6 -28 19 -31 30 -3 11 -10 20
-16 20 -5 0 -15 8 -22 17 -11 15 -13 15 -24 -5z"/>
</g>
</svg>
